<?xml version="1.0" encoding="utf-8"?>
<!-- Generator: Adobe Illustrator 16.0.0, SVG Export Plug-In . SVG Version: 6.00 Build 0)  -->
<!DOCTYPE svg PUBLIC "-//W3C//DTD SVG 1.1//EN" "http://www.w3.org/Graphics/SVG/1.1/DTD/svg11.dtd">
<svg version="1.1" id="Layer_1" xmlns="http://www.w3.org/2000/svg" xmlns:xlink="http://www.w3.org/1999/xlink" x="0px" y="0px"
	 width="737px" height="133px" viewBox="0 0 737 133" enable-background="new 0 0 737 133" xml:space="preserve">
<g>
	<g>
		<path fill="#144A98" d="M263.058,123.058V56.769h12.407c6.428,0,11.131,0.25,14.104,0.748c2.972,0.497,5.547,1.32,7.718,2.468
			c2.567,1.479,4.553,3.427,5.957,5.841c1.403,2.414,2.104,5.147,2.104,8.196c0,3.924-1.164,7.069-3.485,9.44
			c-2.326,2.37-5.796,3.947-10.417,4.731c5.344,0.785,9.381,2.52,12.113,5.207c2.732,2.687,4.099,6.265,4.099,10.731
			c0,3.259-0.787,6.241-2.355,8.942c-1.57,2.7-3.728,4.793-6.475,6.272c-2.446,1.328-5.314,2.276-8.603,2.851
			c-3.291,0.575-8.739,0.86-16.347,0.86h-1.447H263.058z M277.229,83.258h3.169c4.289,0,7.321-0.604,9.102-1.812
			s2.672-3.229,2.672-6.067c0-2.777-0.854-4.755-2.56-5.933c-1.704-1.176-4.686-1.765-8.942-1.765h-3.441V83.258z M277.229,112.009
			h5.57c3.563,0,6.264-0.774,8.104-2.33c1.841-1.555,2.762-3.827,2.762-6.815c0-2.807-0.913-4.949-2.739-6.431
			c-1.828-1.478-4.477-2.219-7.945-2.219h-5.752V112.009z"/>
		<path fill="#144A98" d="M312.778,123.058V56.769h14.171v66.289H312.778z"/>
		<path fill="#144A98" d="M332.089,123.058V56.769h12.405c6.43,0,11.133,0.25,14.105,0.748c2.972,0.497,5.546,1.32,7.721,2.468
			c2.563,1.479,4.549,3.427,5.955,5.841c1.404,2.414,2.104,5.147,2.104,8.196c0,3.924-1.163,7.069-3.486,9.44
			c-2.326,2.37-5.797,3.947-10.416,4.731c5.342,0.785,9.379,2.52,12.111,5.207c2.732,2.687,4.099,6.265,4.099,10.731
			c0,3.259-0.783,6.241-2.354,8.942c-1.568,2.7-3.729,4.793-6.475,6.272c-2.444,1.328-5.313,2.276-8.603,2.851
			c-3.29,0.575-8.738,0.86-16.346,0.86h-1.449H332.089z M346.26,83.258h3.168c4.287,0,7.321-0.604,9.102-1.812
			c1.782-1.208,2.672-3.229,2.672-6.067c0-2.777-0.853-4.755-2.559-5.933c-1.705-1.176-4.686-1.765-8.944-1.765h-3.439V83.258z
			 M346.26,112.009h5.569c3.561,0,6.263-0.774,8.106-2.33c1.84-1.555,2.761-3.827,2.761-6.815c0-2.807-0.913-4.949-2.738-6.431
			c-1.828-1.478-4.477-2.219-7.947-2.219h-5.751V112.009z"/>
		<path fill="#144A98" d="M381.827,123.058V56.769h14.171v54.243h22.64v12.046H381.827z"/>
		<path fill="#144A98" d="M423.777,123.058V56.769h14.172v66.289H423.777z"/>
		<path fill="#144A98" d="M513.857,90.05c0,4.738-0.883,9.221-2.648,13.447c-1.764,4.228-4.308,7.939-7.629,11.138
			c-3.442,3.291-7.32,5.813-11.638,7.563c-4.318,1.752-8.783,2.626-13.402,2.626c-4.046,0-8.006-0.687-11.885-2.061
			c-3.88-1.374-7.436-3.342-10.663-5.91c-4.166-3.318-7.358-7.287-9.576-11.905s-3.328-9.583-3.328-14.897
			c0-4.771,0.875-9.245,2.626-13.426c1.749-4.181,4.315-7.9,7.698-11.161c3.319-3.229,7.175-5.734,11.568-7.517
			c4.39-1.779,8.911-2.671,13.56-2.671c4.619,0,9.108,0.892,13.472,2.671c4.361,1.782,8.219,4.288,11.568,7.517
			c3.351,3.261,5.901,6.988,7.653,11.185C512.982,80.844,513.857,85.311,513.857,90.05z M478.54,112.19
			c6.007,0,10.966-2.105,14.875-6.316c3.908-4.211,5.864-9.487,5.864-15.824c0-6.277-1.979-11.563-5.934-15.848
			c-3.953-4.285-8.89-6.432-14.806-6.432c-6.007,0-10.986,2.138-14.942,6.407c-3.953,4.273-5.931,9.562-5.931,15.872
			c0,6.4,1.948,11.689,5.841,15.871C467.402,110.102,472.411,112.19,478.54,112.19z"/>
		<path fill="#144A98" d="M566.947,123.058h-16.346l-17.431-30.972v30.972h-14.174V56.769h20.285c8.061,0,14.095,1.563,18.112,4.688
			c4.014,3.123,6.021,7.825,6.021,14.105c0,4.557-1.374,8.45-4.12,11.681c-2.749,3.231-6.299,5.115-10.643,5.659L566.947,123.058z
			 M533.171,85.024h2.125c5.737,0,9.524-0.626,11.366-1.881c1.84-1.251,2.761-3.433,2.761-6.542c0-3.261-0.986-5.575-2.966-6.951
			c-1.977-1.373-5.695-2.06-11.161-2.06h-2.125V85.024z"/>
		<path fill="#144A98" d="M572.084,123.058V56.769h14.172v66.289H572.084z"/>
		<path fill="#144A98" d="M648.671,56.769V98.02c0,8.993-2.371,15.711-7.104,20.146c-4.739,4.439-11.88,6.657-21.424,6.657
			c-9.685,0-16.901-2.218-21.641-6.657c-4.739-4.436-7.11-11.153-7.11-20.146V56.769h14.087v39.03c0,5.466,1.207,9.579,3.62,12.34
			c2.408,2.761,6.022,4.142,10.819,4.142c4.833,0,8.484-1.387,10.964-4.165c2.466-2.775,3.711-6.882,3.711-12.316v-39.03H648.671z"
			/>
		<path fill="#144A98" d="M653.807,123.058l10.101-66.289h14.85l12.767,39.03c0.274,0.816,0.564,2.01,0.882,3.579
			s0.614,3.365,0.881,5.387c0.249-2.053,0.517-3.887,0.819-5.501c0.304-1.615,0.583-2.8,0.861-3.555l12.993-38.94h14.622
			l10.146,66.289h-13.445l-4.846-39.979c-0.36-2.96-0.607-5.192-0.726-6.703c-0.122-1.509-0.179-2.913-0.179-4.21
			c0-0.694,0.006-1.215,0.022-1.563c0.014-0.345,0.034-0.655,0.07-0.928c-0.46,2.597-0.89,4.837-1.291,6.725
			c-0.409,1.884-0.783,3.313-1.115,4.277l-14.037,42.382h-7.964l-13.813-42.382c-0.119-0.391-0.39-1.479-0.788-3.26
			c-0.41-1.78-0.975-4.375-1.7-7.789v1.949c0,3.079-0.277,6.853-0.818,11.319l-0.044,0.183l-4.796,39.979H653.807z"/>
	</g>
	<g>
		<path opacity="0.5" fill="#144A98" d="M109.718,116.443c0,0-63.554-45.436-46.854-93.515c0,0-73.782,36.968-55.727,77.292
			C7.138,100.221,43.22,142.249,109.718,116.443z"/>
		<path opacity="0.5" fill="#144A98" d="M109.779,116.7c0,0-49.632-60.334-21.059-102.453c0,0-80.836,16.616-73.83,60.239
			C14.891,74.486,38.869,124.42,109.779,116.7z"/>
		<path opacity="0.5" fill="#144A98" d="M109.772,116.965c0,0-32.329-71.122,6.169-104.414c0,0-82.382-4.866-86.902,39.084
			C29.04,51.635,39.279,106.072,109.772,116.965z"/>
		<path opacity="0.5" fill="#144A98" d="M109.697,117.219c0,0-12.824-77.065,32.979-99.262c0,0-78.317-26.019-94.057,15.266
			C48.62,33.223,44.424,88.455,109.697,117.219z"/>
		<path opacity="0.5" fill="#144A98" d="M109.559,117.443c0,0,7.555-77.758,57.542-87.346c0,0-68.917-45.399-94.804-9.593
			C72.297,20.505,53.952,72.769,109.559,117.443z"/>
		<path opacity="0.5" fill="#F89520" d="M108.611,117.806c0,0,71.153-32.257,104.408,6.272c0,0,4.948-82.378-38.998-86.938
			C174.021,37.14,119.575,47.326,108.611,117.806z"/>
		<path opacity="0.5" fill="#F89520" d="M108.877,117.813c0,0,60.319-49.652,102.449-21.093c0,0-16.644-80.831-60.266-73.81
			C151.06,22.911,101.135,46.903,108.877,117.813z"/>
		<path opacity="0.5" fill="#F89520" d="M109.135,117.752c0,0,45.415-63.568,93.501-46.884c0,0-36.994-73.771-77.313-55.701
			C125.323,15.167,83.307,51.261,109.135,117.752z"/>
		<path opacity="0.5" fill="#F89520" d="M109.367,117.626c0,0,27.419-73.155,78.184-69.482c0,0-54.822-61.686-89.092-33.798
			C98.459,14.346,67.214,60.083,109.367,117.626z"/>
	</g>
</g>
</svg>
