<?xml version="1.0" encoding="utf-8"?>
<!-- Generator: Adobe Illustrator 16.0.0, SVG Export Plug-In . SVG Version: 6.00 Build 0)  -->
<!DOCTYPE svg PUBLIC "-//W3C//DTD SVG 1.1//EN" "http://www.w3.org/Graphics/SVG/1.1/DTD/svg11.dtd">
<svg version="1.1" id="Layer_1" xmlns="http://www.w3.org/2000/svg" xmlns:xlink="http://www.w3.org/1999/xlink" x="0px" y="0px"
	 width="481px" height="225px" viewBox="0 0 481 225" enable-background="new 0 0 481 225" xml:space="preserve">
<g>
	<path fill="#144A98" d="M4.861,218.332v-66.289h12.407c6.428,0,11.131,0.249,14.104,0.748c2.972,0.497,5.547,1.32,7.718,2.468
		c2.567,1.479,4.553,3.426,5.957,5.841c1.403,2.415,2.104,5.147,2.104,8.196c0,3.923-1.164,7.069-3.485,9.441
		c-2.326,2.37-5.797,3.947-10.417,4.731c5.344,0.785,9.381,2.52,12.112,5.208c2.732,2.686,4.099,6.264,4.099,10.73
		c0,3.26-0.787,6.242-2.355,8.943c-1.57,2.7-3.728,4.792-6.475,6.271c-2.445,1.329-5.314,2.276-8.603,2.851
		c-3.291,0.575-8.739,0.861-16.347,0.861h-1.447H4.861z M19.032,178.532h3.169c4.289,0,7.322-0.604,9.103-1.813
		c1.781-1.207,2.672-3.229,2.672-6.066c0-2.778-0.854-4.755-2.56-5.934c-1.704-1.175-4.686-1.764-8.942-1.764h-3.441V178.532z
		 M19.032,207.283h5.57c3.563,0,6.263-0.775,8.104-2.33c1.841-1.555,2.762-3.828,2.762-6.815c0-2.807-0.913-4.95-2.739-6.43
		c-1.828-1.479-4.477-2.219-7.945-2.219h-5.752V207.283z"/>
	<path fill="#144A98" d="M54.581,218.332v-66.289h14.171v66.289H54.581z"/>
	<path fill="#144A98" d="M73.892,218.332v-66.289h12.405c6.43,0,11.133,0.249,14.105,0.748c2.971,0.497,5.546,1.32,7.721,2.468
		c2.563,1.479,4.549,3.426,5.955,5.841c1.404,2.415,2.104,5.147,2.104,8.196c0,3.923-1.163,7.069-3.487,9.441
		c-2.326,2.37-5.797,3.947-10.415,4.731c5.342,0.785,9.379,2.52,12.111,5.208c2.732,2.686,4.099,6.264,4.099,10.73
		c0,3.26-0.783,6.242-2.354,8.943c-1.568,2.7-3.728,4.792-6.474,6.271c-2.445,1.329-5.314,2.276-8.604,2.851
		c-3.29,0.575-8.737,0.861-16.345,0.861h-1.449H73.892z M88.063,178.532h3.168c4.287,0,7.321-0.604,9.102-1.813
		c1.782-1.207,2.672-3.229,2.672-6.066c0-2.778-0.853-4.755-2.559-5.934c-1.705-1.175-4.686-1.764-8.944-1.764h-3.439V178.532z
		 M88.063,207.283h5.569c3.561,0,6.263-0.775,8.106-2.33c1.84-1.555,2.761-3.828,2.761-6.815c0-2.807-0.913-4.95-2.738-6.43
		c-1.828-1.479-4.477-2.219-7.947-2.219h-5.75V207.283z"/>
	<path fill="#144A98" d="M123.63,218.332v-66.289h14.17v54.243h22.641v12.046H123.63z"/>
	<path fill="#144A98" d="M165.58,218.332v-66.289h14.171v66.289H165.58z"/>
	<path fill="#144A98" d="M255.66,185.324c0,4.738-0.883,9.221-2.648,13.448c-1.764,4.227-4.308,7.939-7.629,11.138
		c-3.442,3.291-7.32,5.813-11.638,7.562c-4.318,1.752-8.783,2.627-13.402,2.627c-4.046,0-8.006-0.687-11.885-2.061
		c-3.88-1.374-7.436-3.342-10.663-5.91c-4.167-3.318-7.359-7.288-9.577-11.906s-3.328-9.583-3.328-14.897
		c0-4.77,0.875-9.245,2.626-13.425c1.75-4.181,4.315-7.901,7.698-11.161c3.319-3.229,7.174-5.735,11.568-7.517
		c4.39-1.78,8.911-2.672,13.56-2.672c4.619,0,9.108,0.892,13.472,2.672c4.361,1.781,8.219,4.287,11.568,7.517
		c3.351,3.259,5.901,6.988,7.653,11.184C254.784,176.117,255.66,180.585,255.66,185.324z M220.343,207.465
		c6.007,0,10.966-2.105,14.875-6.316c3.908-4.212,5.864-9.487,5.864-15.825c0-6.277-1.979-11.562-5.934-15.848
		c-3.954-4.285-8.89-6.431-14.806-6.431c-6.007,0-10.986,2.138-14.942,6.407c-3.953,4.273-5.931,9.562-5.931,15.872
		c0,6.401,1.949,11.689,5.841,15.871C209.205,205.376,214.214,207.465,220.343,207.465z"/>
	<path fill="#144A98" d="M308.75,218.332h-16.346l-17.431-30.972v30.972H260.8v-66.289h20.285c8.061,0,14.095,1.563,18.112,4.688
		c4.014,3.123,6.021,7.825,6.021,14.105c0,4.557-1.374,8.45-4.12,11.68c-2.749,3.231-6.299,5.116-10.643,5.66L308.75,218.332z
		 M274.974,180.298h2.125c5.737,0,9.524-0.625,11.365-1.88c1.841-1.251,2.762-3.433,2.762-6.542c0-3.26-0.986-5.576-2.966-6.951
		c-1.977-1.373-5.695-2.059-11.161-2.059h-2.125V180.298z"/>
	<path fill="#144A98" d="M313.887,218.332v-66.289h14.172v66.289H313.887z"/>
	<path fill="#144A98" d="M390.474,152.043v41.25c0,8.993-2.371,15.711-7.104,20.147c-4.74,4.438-11.88,6.657-21.424,6.657
		c-9.685,0-16.901-2.219-21.641-6.657c-4.739-4.436-7.11-11.154-7.11-20.147v-41.25h14.087v39.031c0,5.465,1.207,9.579,3.62,12.339
		c2.408,2.761,6.022,4.142,10.819,4.142c4.833,0,8.484-1.387,10.964-4.165c2.466-2.776,3.711-6.882,3.711-12.316v-39.031H390.474z"
		/>
	<path fill="#144A98" d="M395.609,218.332l10.101-66.289h14.85l12.767,39.031c0.274,0.815,0.564,2.009,0.882,3.579
		s0.614,3.365,0.881,5.387c0.249-2.053,0.517-3.887,0.819-5.501c0.304-1.616,0.583-2.801,0.861-3.555l12.993-38.94h14.622
		l10.146,66.289h-13.445l-4.846-39.98c-0.36-2.959-0.607-5.192-0.726-6.703c-0.122-1.509-0.179-2.914-0.179-4.211
		c0-0.694,0.006-1.214,0.022-1.563c0.014-0.345,0.034-0.655,0.07-0.927c-0.46,2.596-0.89,4.837-1.291,6.724
		c-0.409,1.884-0.783,3.313-1.115,4.278l-14.037,42.382h-7.964l-13.813-42.382c-0.119-0.391-0.39-1.479-0.788-3.26
		c-0.41-1.781-0.975-4.375-1.7-7.789v1.948c0,3.08-0.277,6.853-0.818,11.32l-0.044,0.182l-4.796,39.98H395.609z"/>
</g>
<g>
	<path opacity="0.5" fill="#144A98" d="M240.674,118.294c0,0-63.554-45.435-46.854-93.515c0,0-73.783,36.968-55.727,77.292
		C138.093,102.072,174.175,144.1,240.674,118.294z"/>
	<path opacity="0.5" fill="#144A98" d="M240.734,118.551c0,0-49.632-60.334-21.059-102.454c0,0-80.835,16.616-73.829,60.239
		C145.847,76.337,169.825,126.271,240.734,118.551z"/>
	<path opacity="0.5" fill="#144A98" d="M240.729,118.815c0,0-32.329-71.122,6.169-104.414c0,0-82.382-4.867-86.902,39.084
		C159.996,53.485,170.235,107.922,240.729,118.815z"/>
	<path opacity="0.5" fill="#144A98" d="M240.652,119.069c0,0-12.823-77.065,32.979-99.261c0,0-78.317-26.019-94.057,15.265
		C179.575,35.073,175.38,90.306,240.652,119.069z"/>
	<path opacity="0.5" fill="#144A98" d="M240.515,119.294c0,0,7.555-77.759,57.542-87.347c0,0-68.918-45.399-94.805-9.593
		C203.252,22.355,184.908,74.62,240.515,119.294z"/>
	<path opacity="0.5" fill="#F89520" d="M239.567,119.657c0,0,71.153-32.257,104.408,6.272c0,0,4.948-82.377-38.999-86.938
		C304.977,38.99,250.531,49.177,239.567,119.657z"/>
	<path opacity="0.5" fill="#F89520" d="M239.833,119.664c0,0,60.318-49.652,102.448-21.092c0,0-16.644-80.832-60.266-73.81
		C282.016,24.762,232.091,48.754,239.833,119.664z"/>
	<path opacity="0.5" fill="#F89520" d="M240.091,119.602c0,0,45.414-63.568,93.501-46.883c0,0-36.994-73.771-77.313-55.701
		C256.279,17.018,214.263,53.112,240.091,119.602z"/>
	<path opacity="0.5" fill="#F89520" d="M240.322,119.477c0,0,27.419-73.155,78.185-69.482c0,0-54.822-61.686-89.092-33.798
		C229.415,16.196,198.17,61.934,240.322,119.477z"/>
</g>
</svg>
